<?xml version="1.0" encoding="utf-8"?>
<!-- Generator: Adobe Illustrator 28.0.0, SVG Export Plug-In . SVG Version: 6.00 Build 0)  -->
<svg version="1.1" id="Layer_1" xmlns="http://www.w3.org/2000/svg" xmlns:xlink="http://www.w3.org/1999/xlink" x="0px" y="0px"
	 viewBox="0 0 719.8 687.2" style="enable-background:new 0 0 719.8 687.2;" xml:space="preserve">
<style type="text/css">
	.st0{fill:#3F3D56;}
	.st1{fill:#EAEAEA;}
	.st2{opacity:0.2;enable-background:new    ;}
	.st3{fill:#FFFFFF;}
	.st4{fill:#FFB8B8;}
	.st5{fill:#6C63FF;}
	.st6{fill:#2F2E41;}
	.st7{fill:#F9A825;}
</style>
<g>
	<path class="st0" d="M94.2,430.1h524.5v-53.5c0-144.6-117.6-262.2-262.2-262.2S94.2,232,94.2,376.6V430.1z"/>
	<path class="st1" d="M94.2,430.1h524.5v-53.5c0-144.6-117.6-262.2-262.2-262.2S94.2,232,94.2,376.6V430.1z"/>
	<path class="st2" d="M162.2,448.7h403.6c-0.8-44.2-36.8-79.6-81-79.6H243.2C199,369.1,163,404.5,162.2,448.7z"/>
	<path class="st3" d="M544.5,400.6v30.2H170.4v-30.2H86.6v147.2c0,18.8,15.2,34,34,34l0,0h473.6c18.8,0,34-15.2,34-34l0,0V400.6
		H544.5z"/>
	<circle class="st1" cx="114.1" cy="359.4" r="81"/>
	<circle class="st1" cx="605.7" cy="359.4" r="81"/>
	<circle class="st2" cx="114.1" cy="359.4" r="16.5"/>
	<circle class="st2" cx="605.7" cy="359.4" r="16.5"/>
	<path class="st4" d="M386.4,105.1c0,0,1.6,30.8,13,37.3s0,50.2,0,50.2l-53.5,1.6l-3.2-51.8c0,0,6.5-21.1,3.2-30.8
		S386.4,105.1,386.4,105.1z"/>
	<polygon class="st4" points="446.2,532.6 426.9,555.3 457.5,584.5 473.8,552 	"/>
	<polygon class="st4" points="308.5,532.6 328,555.3 297.2,584.5 281,552 	"/>
	<path class="st5" d="M435.8,318.1c0,0,116.6,38.9,110.1,76.1c-6.5,37.3-56.7,168.5-56.7,168.5s-27.5,0-48.6-29.2l14.6-32.4
		c0,0-6.5-17.8,4.9-21.1s17.8-59.9,17.8-59.9s-82.6-6.5-100.4-37.3L345,305L435.8,318.1z"/>
	<path class="st5" d="M319.1,318.1c0,0-116.6,38.9-110.1,76.1s56.7,168.5,56.7,168.5s27.5,0,48.6-29.2L299.7,501
		c0,0,6.5-17.8-4.9-21.1S277,420,277,420s82.6-6.5,100.4-37.3l32.4-77.7L319.1,318.1z"/>
	<path class="st6" d="M451.9,572.3c0,0,16.2-14.6,17.8-3.2s-1.6,56.7-1.6,56.7s16.2,34-8.1,34s-35.6-25.9-32.4-51.8
		s-11.3-35.6-11.3-35.6s-17.8-35.6,0-38.9s24.3,4.9,24.3,4.9S434.1,567.5,451.9,572.3z"/>
	<path class="st6" d="M302.9,572.3c0,0-16.2-14.6-17.8-3.2c-1.6,11.4,1.6,56.7,1.6,56.7s-16.2,34,8.1,34s35.6-25.9,32.4-51.8
		s11.3-35.6,11.3-35.6s17.8-35.6,0-38.9s-24.3,4.9-24.3,4.9S320.8,567.5,302.9,572.3z"/>
	<circle class="st4" cx="361.2" cy="86.5" r="37.3"/>
	<path d="M366.9,150.4l-22.6-17.8l-55.1,25.9l-1.6,147.4c0,0-34,16.2-24.3,37.3c0,0,29.2,6.5,42.1,19.4s85.8-4.9,116.6-14.6
		s38.9-21.1,38.9-21.1L430,283.1l17.8-111.8l-55.1-37L366.9,150.4z"/>
	<path class="st6" d="M406.5,61.1c-0.8-1.1-1.6-2.3-2.2-3.4c-1.2-2.8,0.7-6.1-1-8.8c-1.7-2.7-6.2-3.2-9.2-5.1
		c-4.6-2.8-5.5-8.3-9.8-11.4c-3.1-2.2-7.6-2.8-11.8-2.7s-8.3,0.9-12.5,1c-5.6,0.1-11.2-1-16.4-3.3l3.1,6c-3.4-0.7-6.7-2.1-9.7-3.9
		c-1.4,1.7,1.1,4.3-0.4,5.8c-0.6,0.5-1.4,0.9-2.2,1c-5.9,1.7-11.5,4.4-16.5,8.1c-1.2,0.7-2.1,1.7-2.8,2.9c-0.8,1.8-0.1,3.7-0.2,5.6
		c-0.1,3.4-2.7,6.4-4.6,9.5c-1.9,3.1-2.9,7.1-0.1,9.7c0.7,0.5,1.3,1.1,1.9,1.7c2.8,3.3-2.1,8.1,0.2,11.5c1,1.5,3.1,2.3,5,3.2
		c3.5,1.6,6.4,4.3,8.5,7.6l-1.4-10.4c-0.2-0.5,0-1.1,0.3-1.5c0.7-0.7,2.1-0.4,3.1-0.9s1.1-1.7,1.1-2.7l-0.3-7.6
		c-0.1-3.4-0.2-3.9,2.3-6.6c1.8-1.9,4.5-3.1,7.3-3.9c6.3-1.9,13.1-2.6,19.9-3.3c7.8-0.8,16.6-4.6,22.7-0.5c5,3.3,6.6,8.7,9,13.5
		c2.2,4.3,7.7,17,12.3,10.1C404.9,78.1,409.2,65.9,406.5,61.1z"/>
	<path class="st0" d="M314.9,270.4h93c7.7,0,14,6.3,14,14l0,0l0,0h-121l0,0l0,0C300.9,276.6,307.1,270.4,314.9,270.4z"/>
	<path class="st7" d="M414.4,269.4c-0.5,0-1.1,0.1-1.6,0.3c-0.4-1.6-2-2.6-3.6-2.2c-1.3,0.3-2.3,1.5-2.3,2.9l0,0
		c-0.4,0-0.7,0.1-1.1,0.2c-0.2-0.8-0.7-1.5-1.5-1.9c1-0.5,1.7-1.4,2.2-2.4c2.2,0.2,4.2-1.4,4.4-3.6c0.2-2.2-1.4-4.2-3.6-4.4
		c-0.3,0-0.6,0-0.9,0c-0.5,0-1.1,0.1-1.6,0.3c-0.4-1.6-2-2.6-3.6-2.2s-2.6,2-2.2,3.6c0,0.1,0,0.2,0.1,0.3c-0.1,0.1-0.2,0.2-0.3,0.3
		c-0.6-0.5-1.3-0.7-2-0.7c-0.9-2.6-3.7-4-6.3-3.1c-2,0.7-3.3,2.5-3.3,4.6c-0.4,0-0.8,0.1-1.2,0.2c0-0.2-0.1-0.3-0.2-0.5
		c0.8-0.7,1.3-1.7,1.3-2.8c-0.1-2.3-2.2-4.1-4.5-4c-0.5,0-1.1,0.1-1.6,0.3c-0.4-1.6-2-2.6-3.6-2.2s-2.6,2-2.2,3.6
		c0,0.1,0,0.2,0.1,0.3c-1.3,0.9-2.1,2.3-2.1,3.9l-0.1,0.1c0.1-0.3,0.1-0.6,0.1-0.9c-0.1-2.3-2.2-4.1-4.5-4c-0.5,0-1.1,0.1-1.6,0.3
		c-0.4-1.6-2-2.6-3.6-2.2s-2.6,2-2.2,3.6c0,0.1,0,0.2,0.1,0.3c-2.3,1.6-2.8,4.7-1.3,6.9c0.3,0.5,0.8,0.9,1.3,1.3
		c-0.2,0.6-0.2,1.2,0,1.8c-0.5,0.3-0.9,0.8-1.3,1.3c-0.4-1.6-2.1-2.5-3.7-2.1c-1.2,0.3-2.1,1.4-2.2,2.6c-0.4-0.2-0.8-0.4-1.3-0.5
		c0.8-0.5,1.4-1.3,1.8-2.2c2.2,0.2,4.2-1.4,4.4-3.6c0.2-2.2-1.4-4.2-3.6-4.4c-0.3,0-0.6,0-0.9,0c-0.5,0-1.1,0.1-1.6,0.3
		c-0.4-1.6-2-2.6-3.6-2.2s-2.6,2-2.2,3.6c0,0.1,0,0.2,0.1,0.3c-0.1,0-0.1,0.1-0.2,0.1c-0.2,0-0.3,0-0.5,0c-0.5,0-1.1,0.1-1.6,0.3
		c0-0.1,0-0.1-0.1-0.2c0.3-1.6-0.7-3.2-2.3-3.5c-0.3-0.1-0.5-0.1-0.8-0.1c-0.9-2.6-3.8-3.9-6.4-3s-3.9,3.8-3,6.4
		c0.3,0.9,0.8,1.6,1.6,2.2c-0.3,0-0.7,0.1-1,0.2c-0.4-1.6-2-2.6-3.6-2.2c-0.4,0.1-0.8,0.3-1.2,0.6c-0.9-1.1-2.2-1.7-3.6-1.7
		c-0.5,0-1.1,0.1-1.6,0.3c-0.4-1.6-2-2.6-3.6-2.2s-2.6,2-2.2,3.6c0,0.1,0,0.2,0.1,0.3c-1.3,0.9-2.2,2.5-2.2,4.1l0,0
		c-0.7-0.1-1.4,0-2.1,0.2c-0.4-1.6-2-2.6-3.6-2.2s-2.6,2-2.2,3.6c0,0.1,0,0.2,0.1,0.3c-2.3,1.5-2.9,4.6-1.3,6.9
		c1.2,1.7,3.3,2.5,5.3,2.1c0.5,2.7,3,4.5,5.8,4.1c1.6-0.3,3-1.3,3.7-2.8c3.6,0.5,7.3,0.3,10.8-0.5c0.9,2.6,3.7,4,6.3,3.1
		c1.3-0.5,2.4-1.4,2.9-2.7c0.7,0,1.4-0.2,2.1-0.5c1.4,2.4,4.4,3.2,6.8,1.9c0.9-0.5,1.7-1.4,2.1-2.4c2.3-0.4,4.6,0.8,5.4,3
		c1.4-1.9,3.5-3,5.7-3.2c2.1,0.6,4.3-0.3,5.4-2.1c-0.7,2.7,0.9,5.4,3.6,6.1c2.4,0.6,4.9-0.6,5.8-2.8c0.7,0,1.4-0.2,2.1-0.5
		c1.4,2.4,4.4,3.2,6.8,1.9c0.9-0.5,1.7-1.4,2.1-2.4c0.7,0,1.4-0.2,2.1-0.5c1.3,2.4,4.4,3.2,6.7,1.9c0.2-0.1,0.5-0.3,0.7-0.5
		c0.5,2.7,3.1,4.5,5.8,4c1.2-0.2,2.4-0.9,3.1-1.9c2.2,1.7,5.3,1.3,7-0.9c0.3-0.3,0.5-0.7,0.6-1.1c2.2,0.2,4.2-1.4,4.4-3.6
		c0.2-2.2-1.4-4.2-3.6-4.4C415,269.3,414.8,269.3,414.4,269.4L414.4,269.4z M325,267.3L325,267.3c-0.1,0.1-0.1,0.1-0.1,0.1
		c-0.1,0-0.3,0-0.4,0c0,0,0,0,0-0.1C324.6,267.3,324.9,267.3,325,267.3z M366.9,265.6c0-0.1,0-0.1-0.1-0.2c0.8-0.5,1.4-1.3,1.7-2.1
		c1.3,0,2.6-0.6,3.5-1.6c0,0.2-0.1,0.4-0.1,0.6c0,0.3,0.1,0.6,0.2,0.9c-0.9,0.6-1.5,1.5-1.9,2.4
		C369.1,265.3,367.9,265.2,366.9,265.6L366.9,265.6z M396.8,266c0-0.1,0-0.1,0-0.2c0.1,0,0.3,0,0.4,0c0.2,0.6,0.5,1.2,1,1.8
		c-0.1,0-0.2,0-0.3,0.1C397.6,267,397.2,266.4,396.8,266z"/>
	<path class="st0" d="M310.9,275.4c-5.8,0-10.4,4.7-10.4,10.4c0,0.2,0,0.4,0,0.6l6.8,93.1c0.3,5.5,4.9,9.9,10.4,9.9H405
		c5.5,0,10.1-4.3,10.4-9.9l6.8-93.1c0.3-5.8-4.1-10.7-9.9-11c-0.2,0-0.4,0-0.6,0H310.9z"/>
	<rect x="315.9" y="275.4" class="st5" width="6" height="114"/>
	<rect x="332.9" y="275.4" class="st5" width="6" height="114"/>
	<rect x="349.9" y="275.4" class="st5" width="6" height="114"/>
	<rect x="366.9" y="275.4" class="st5" width="6" height="114"/>
	<rect x="383.9" y="275.4" class="st5" width="6" height="114"/>
	<rect x="400.9" y="275.4" class="st5" width="6" height="114"/>
	<path class="st4" d="M400.9,331.9l-19.4,11.3c0,0-47,38.9-14.6,45.4s40.5-27.5,40.5-27.5l11.3-13L400.9,331.9z"/>
	<path class="st4" d="M308.5,323.8l19.4,11.3c0,0,47,38.9,14.6,45.4s-40.4-27.6-40.4-27.6l-11.3-13L308.5,323.8z"/>
	<path d="M426.9,169.9l21.1,1.6c0,0,16.2,14.6,14.6,34c0,0,14.6,42.1,11.3,59.9c0,0,3.2,29.2-1.6,40.5S426.9,361,426.9,361
		s-37.3-29.2-35.6-30.8l48.6-48.6l-24.3-32.4L426.9,169.9z"/>
	<path d="M289.1,158.5l-0.8,0.8c0,0-36.4,15.4-34.8,34.8c0,0-14.6,42.1-11.3,59.9c0,0-3.2,29.2,1.6,40.5s45.4,55.1,45.4,55.1
		s37.3-29.2,35.6-30.8l-48.7-48.5l24.3-32.4L289.1,158.5z"/>
</g>
</svg>
